<?xml version="1.0" encoding="utf-8"?>
<!-- Generator: Adobe Illustrator 20.1.0, SVG Export Plug-In . SVG Version: 6.00 Build 0)  -->
<svg version="1.1" id="Capa_1" xmlns="http://www.w3.org/2000/svg" xmlns:xlink="http://www.w3.org/1999/xlink" x="0px" y="0px"
	 viewBox="0 0 460 460" style="enable-background:new 0 0 460 460;" xml:space="preserve">
<style type="text/css">
	.st0{fill:#88D37C;}
	.st1{fill:#39952B;}
	.st2{fill:#B0E5A8;}
	.st3{fill:#5CB34E;}
</style>
<g>
	<path class="st0" d="M230,203.1h-29.4v50h-31.2v-50H85v-30h35v-40h30v40h109.4v50h31.2v-50H375v-30h-35v-40h-30v40h-80v-36h-50v-30
		h50V0c-23,0-43,13-53.1,32c-18.2-11.4-42-12.7-61.9-1.2C95.1,42.3,84.2,63.5,85,85c-21.5-0.8-42.7,10-54.2,30
		c-11.5,19.9-10.3,43.7,1.2,61.9C13,187,0,207,0,230s13,43,32,53.1h198V203.1z"/>
	<path class="st1" d="M428,176.9c11.4-18.2,12.7-42,1.2-61.9c-11.5-19.9-32.7-30.8-54.2-30c0.8-21.5-10-42.7-30-54.2
		c-19.9-11.5-43.7-10.3-61.9,1.2C273,13,253,0,230,0v77.1h50v30h-50v36h80v-40h30v40h35v30h-84.3v50h-31.2v-50H230v110h198
		c19-10.1,32-30,32-53.1S447,187,428,176.9z M393.5,253.1h-30v-30h30V253.1z"/>
	<path class="st2" d="M329,283.1h-99c0,47.8,33.9,87.7,79,97v80h40v-80c-6.5,1.3-13.1,2-20,2V283.1z"/>
	<rect x="180" y="77.1" class="st2" width="50" height="30"/>
	<polygon class="st2" points="150,133.1 120,133.1 120,173.1 85,173.1 85,203.1 169.4,203.1 169.4,253.1 200.6,253.1 200.6,203.1 
		230,203.1 230,173.1 150,173.1 	"/>
	<rect x="230" y="77.1" class="st3" width="50" height="30"/>
	<rect x="363.5" y="223.1" class="st3" width="30" height="30"/>
	<path class="st3" d="M329,382.1c6.9,0,13.5-0.7,20-2c45.1-9.2,79-49.1,79-97h-99V382.1z"/>
</g>
</svg>
