<?xml version="1.0" encoding="utf-8"?>
<!-- Generator: Adobe Illustrator 20.1.0, SVG Export Plug-In . SVG Version: 6.00 Build 0)  -->
<svg version="1.1" id="Layer_1" xmlns="http://www.w3.org/2000/svg" xmlns:xlink="http://www.w3.org/1999/xlink" x="0px" y="0px"
	 viewBox="0 0 130 130" style="enable-background:new 0 0 130 130;" xml:space="preserve">
<style type="text/css">
	.st0{fill:#FFFFFF;stroke:#20A504;stroke-width:2;stroke-miterlimit:10;}
	.st1{fill:#20A504;stroke:#20A504;stroke-width:2;stroke-miterlimit:10;}
	.st2{fill:none;stroke:#20A504;stroke-width:4;stroke-miterlimit:10;}
	.st3{fill:#FFFFFF;}
</style>
<g>
	<path class="st0" d="M77.1,104.6c-3.2,0-6.4-1.2-8.7-3.4c-2.7-2.3-4.2-5.5-4.5-9.2c-0.2-3.5,1-6.9,3.4-9.6c2.5-2.9,6.2-4.5,9.9-4.5
		c3.2,0,6.4,1.2,8.7,3.4c2.7,2.3,4.2,5.5,4.5,9.2c0.2,3.5-1,6.9-3.4,9.6C84.7,102.9,81,104.6,77.1,104.6z"/>
	<path class="st1" d="M77.1,78.8L77.1,78.8c3,0,6,1.2,8.2,3.2c2.5,2.2,4,5.2,4.2,8.6c0.2,3.4-0.8,6.5-3.2,9.1
		c-2.3,2.7-5.7,4.2-9.4,4.2c-3,0-6-1.2-8.2-3.2c-2.5-2.2-4-5.2-4.2-8.6c-0.2-3.4,0.8-6.5,3.2-9.1C70.2,80.4,73.6,78.8,77.1,78.8
		 M77.1,77.2c-3.9,0-7.7,1.7-10.6,4.7c-5.2,5.9-4.7,14.8,1.2,19.9c2.7,2.3,6,3.5,9.4,3.5c3.9,0,7.7-1.7,10.6-4.7
		c5.2-5.7,4.7-14.8-1.2-19.7C83.8,78.3,80.5,77.2,77.1,77.2L77.1,77.2z"/>
</g>
<g>
	<path class="st0" d="M79,39.7c-3.2,0-6.4-1.2-8.7-3.4c-5.5-4.9-6-13.2-1.2-18.7c2.5-2.9,6.2-4.5,9.9-4.5c3.2,0,6.4,1.2,8.7,3.4
		c5.5,4.9,6,13.2,1.2,18.7C86.3,38,82.7,39.7,79,39.7z"/>
	<path class="st1" d="M79,14L79,14c3,0,6,1.2,8.2,3.2c5.2,4.5,5.7,12.4,1,17.5c-2.3,2.7-5.7,4.2-9.4,4.2c-3,0-6-1.2-8.2-3.2
		c-2.5-2.2-4-5.2-4.2-8.6s0.8-6.5,3.2-9.1C71.9,15.5,75.3,14,79,14 M79,12.3c-3.9,0-7.7,1.7-10.6,4.7c-5.2,5.9-4.7,14.8,1.2,19.9
		c2.7,2.3,6,3.5,9.4,3.5c3.9,0,7.7-1.7,10.6-4.7c5.2-5.9,4.7-14.8-1.2-19.9C85.5,13.5,82.2,12.3,79,12.3L79,12.3z"/>
</g>
<g>
	<line class="st2" x1="68.2" y1="17.1" x2="50.9" y2="1.6"/>
</g>
<path class="st2" d="M51.1,2.9"/>
<line class="st2" x1="52.3" y1="0" x2="16.5" y2="40.5"/>
<line class="st2" x1="66.6" y1="81.9" x2="18" y2="38.9"/>
<g>
	<path class="st0" d="M48.4,52.2c-3.2,0-6.4-1.2-8.7-3.4c-5.5-4.9-6-13.2-1.2-18.7c2.5-2.9,6.2-4.5,9.9-4.5c3.2,0,6.4,1.2,8.7,3.4
		c2.7,2.3,4.2,5.5,4.5,9.2c0.2,3.5-1,6.9-3.4,9.6C55.7,50.7,52.1,52.2,48.4,52.2z"/>
	<path class="st1" d="M48.4,26.6L48.4,26.6c3,0,6,1.2,8.2,3.2c2.5,2.2,4,5.2,4.2,8.6c0.2,3.4-0.8,6.5-3.2,9.1
		c-2.3,2.7-5.7,4.2-9.4,4.2c-3,0-6-1.2-8.2-3.2c-5.2-4.5-5.7-12.4-1-17.5C41.3,28.1,44.9,26.6,48.4,26.6 M48.4,24.9
		c-3.9,0-7.7,1.7-10.6,4.7c-5.2,5.9-4.7,14.8,1.2,19.9c2.7,2.3,6,3.5,9.4,3.5c3.9,0,7.7-1.7,10.6-4.7c5.2-5.9,4.7-14.8-1.2-19.9
		C55.1,26.1,51.7,24.9,48.4,24.9L48.4,24.9z"/>
</g>
<g>
	<path class="st3" d="M46.5,117.2c-3.2,0-6.4-1.2-8.7-3.4c-2.7-2.3-4.2-5.5-4.5-9.2s1-6.9,3.4-9.6c2.5-2.9,6.2-4.5,9.9-4.5
		c3.2,0,6.4,1.2,8.7,3.4c5.5,4.9,6,13.2,1.2,18.7C54.1,115.5,50.4,117.2,46.5,117.2z"/>
	<path class="st1" d="M46.5,91.5L46.5,91.5c3,0,6,1.2,8.2,3.2c5.2,4.5,5.7,12.4,1,17.5c-2.3,2.7-5.7,4.2-9.4,4.2c-3,0-6-1.2-8.2-3.2
		c-5.2-4.5-5.7-12.4-1-17.5C39.7,93,43,91.5,46.5,91.5 M46.5,89.8c-3.9,0-7.7,1.7-10.6,4.7c-5.2,5.9-4.7,14.8,1.2,19.9
		c2.7,2.3,6,3.5,9.4,3.5c3.9,0,7.7-1.7,10.6-4.7c5.2-5.9,4.7-14.8-1.2-19.9C53.2,91,49.9,89.8,46.5,89.8L46.5,89.8z"/>
</g>
<g>
	<line class="st2" x1="55.6" y1="112.2" x2="76.2" y2="130"/>
</g>
<path class="st2" d="M74.4,127.4"/>
<line class="st2" x1="74.6" y1="128.6" x2="107.5" y2="91.5"/>
<line class="st2" x1="58.8" y1="48.3" x2="109.1" y2="92.9"/>
</svg>
