<?xml version="1.0" encoding="utf-8"?>
<!-- Generator: Adobe Illustrator 20.1.0, SVG Export Plug-In . SVG Version: 6.00 Build 0)  -->
<svg version="1.1" id="Layer_1" xmlns="http://www.w3.org/2000/svg" xmlns:xlink="http://www.w3.org/1999/xlink" x="0px" y="0px"
	 viewBox="0 0 130 130" style="enable-background:new 0 0 130 130;" xml:space="preserve">
<style type="text/css">
	.st0{fill:#FFFFFF;}
	.st1{fill:#20A504;}
	.st2{fill:none;stroke:#20A504;stroke-miterlimit:10;}
</style>
<g>
	<path class="st0" d="M73.6,87.2c-1.9,0-3.8-0.7-5.2-2c-1.6-1.4-2.5-3.3-2.7-5.5c-0.1-2.1,0.6-4.1,2-5.7c1.5-1.7,3.7-2.7,5.9-2.7
		c1.9,0,3.8,0.7,5.2,2c1.6,1.4,2.5,3.3,2.7,5.5c0.1,2.1-0.6,4.1-2,5.7C78.1,86.2,75.9,87.2,73.6,87.2z"/>
	<path class="st1" d="M73.6,71.8L73.6,71.8c1.8,0,3.6,0.7,4.9,1.9c1.5,1.3,2.4,3.1,2.5,5.1c0.1,2-0.5,3.9-1.9,5.4
		c-1.4,1.6-3.4,2.5-5.6,2.5c-1.8,0-3.6-0.7-4.9-1.9c-1.5-1.3-2.4-3.1-2.5-5.1c-0.1-2,0.5-3.9,1.9-5.4C69.5,72.8,71.5,71.8,73.6,71.8
		 M73.6,70.8c-2.3,0-4.6,1-6.3,2.8c-3.1,3.5-2.8,8.8,0.7,11.9c1.6,1.4,3.6,2.1,5.6,2.1c2.3,0,4.6-1,6.3-2.8C83,81.4,82.7,76,79.2,73
		C77.6,71.5,75.6,70.8,73.6,70.8L73.6,70.8z"/>
</g>
<g>
	<path class="st0" d="M74.7,48.4c-1.9,0-3.8-0.7-5.2-2c-3.3-2.9-3.6-7.9-0.7-11.2c1.5-1.7,3.7-2.7,5.9-2.7c1.9,0,3.8,0.7,5.2,2
		c3.3,2.9,3.6,7.9,0.7,11.2C79.1,47.4,76.9,48.4,74.7,48.4z"/>
	<path class="st1" d="M74.7,33L74.7,33c1.8,0,3.6,0.7,4.9,1.9c3.1,2.7,3.4,7.4,0.6,10.5c-1.4,1.6-3.4,2.5-5.6,2.5
		c-1.8,0-3.6-0.7-4.9-1.9c-1.5-1.3-2.4-3.1-2.5-5.1c-0.1-2,0.5-3.9,1.9-5.4C70.5,33.9,72.5,33,74.7,33 M74.7,32
		c-2.3,0-4.6,1-6.3,2.8c-3.1,3.5-2.8,8.8,0.7,11.9c1.6,1.4,3.6,2.1,5.6,2.1c2.3,0,4.6-1,6.3-2.8c3.1-3.5,2.8-8.8-0.7-11.9
		C78.6,32.7,76.6,32,74.7,32L74.7,32z"/>
</g>
<g>
	<line class="st2" x1="68.3" y1="34.9" x2="57.9" y2="25.6"/>
</g>
<path class="st2" d="M58,26.4"/>
<line class="st2" x1="57.9" y1="25.6" x2="38.2" y2="47.9"/>
<line class="st2" x1="67.3" y1="73.7" x2="38.2" y2="47.9"/>
<g>
	<path class="st0" d="M56.4,55.9c-1.9,0-3.8-0.7-5.2-2c-3.3-2.9-3.6-7.9-0.7-11.2c1.5-1.7,3.7-2.7,5.9-2.7c1.9,0,3.8,0.7,5.2,2
		c1.6,1.4,2.5,3.3,2.7,5.5c0.1,2.1-0.6,4.1-2,5.7C60.8,55,58.6,55.9,56.4,55.9z"/>
	<path class="st1" d="M56.4,40.6L56.4,40.6c1.8,0,3.6,0.7,4.9,1.9c1.5,1.3,2.4,3.1,2.5,5.1c0.1,2-0.5,3.9-1.9,5.4
		c-1.4,1.6-3.4,2.5-5.6,2.5c-1.8,0-3.6-0.7-4.9-1.9c-3.1-2.7-3.4-7.4-0.6-10.5C52.2,41.5,54.3,40.6,56.4,40.6 M56.4,39.6
		c-2.3,0-4.6,1-6.3,2.8c-3.1,3.5-2.8,8.8,0.7,11.9c1.6,1.4,3.6,2.1,5.6,2.1c2.3,0,4.6-1,6.3-2.8c3.1-3.5,2.8-8.8-0.7-11.9
		C60.4,40.3,58.4,39.6,56.4,39.6L56.4,39.6z"/>
</g>
<g>
	<path class="st0" d="M55.3,94.8c-1.9,0-3.8-0.7-5.2-2c-1.6-1.4-2.5-3.3-2.7-5.5s0.6-4.1,2-5.7c1.5-1.7,3.7-2.7,5.9-2.7
		c1.9,0,3.8,0.7,5.2,2c3.3,2.9,3.6,7.9,0.7,11.2C59.8,93.8,57.6,94.8,55.3,94.8z"/>
	<path class="st1" d="M55.3,79.4L55.3,79.4c1.8,0,3.6,0.7,4.9,1.9c3.1,2.7,3.4,7.4,0.6,10.5c-1.4,1.6-3.4,2.5-5.6,2.5
		c-1.8,0-3.6-0.7-4.9-1.9c-3.1-2.7-3.4-7.4-0.6-10.5C51.2,80.3,53.2,79.4,55.3,79.4 M55.3,78.4c-2.3,0-4.6,1-6.3,2.8
		c-3.1,3.5-2.8,8.8,0.7,11.9c1.6,1.4,3.6,2.1,5.6,2.1c2.3,0,4.6-1,6.3-2.8c3.1-3.5,2.8-8.8-0.7-11.9C59.3,79.1,57.3,78.4,55.3,78.4
		L55.3,78.4z"/>
</g>
<g>
	<line class="st2" x1="61.7" y1="92.4" x2="72.1" y2="101.6"/>
</g>
<path class="st2" d="M72,100.9"/>
<line class="st2" x1="72.1" y1="101.6" x2="91.8" y2="79.4"/>
<line class="st2" x1="62.7" y1="53.6" x2="91.8" y2="79.4"/>
</svg>
