<?xml version="1.0" encoding="utf-8"?>
<!-- Generator: Adobe Illustrator 20.1.0, SVG Export Plug-In . SVG Version: 6.00 Build 0)  -->
<svg version="1.1" id="Layer_1" xmlns="http://www.w3.org/2000/svg" xmlns:xlink="http://www.w3.org/1999/xlink" x="0px" y="0px"
	 viewBox="0 0 130 130" style="enable-background:new 0 0 130 130;" xml:space="preserve">
<style type="text/css">
	.st0{fill:#FFFFFF;}
	.st1{fill:#20A504;}
	.st2{fill:none;stroke:#20A504;stroke-miterlimit:10;}
</style>
<g>
	<path class="st0" d="M79.4,104.7c-3.2,0-6.4-1.2-8.7-3.4c-2.7-2.3-4.2-5.5-4.5-9.2c-0.2-3.5,1-6.9,3.4-9.6c2.5-2.9,6.2-4.5,9.9-4.5
		c3.2,0,6.4,1.2,8.7,3.4c2.7,2.3,4.2,5.5,4.5,9.2c0.2,3.5-1,6.9-3.4,9.6C87,103,83.3,104.7,79.4,104.7z"/>
	<path class="st1" d="M79.4,78.8L79.4,78.8c3,0,6,1.2,8.2,3.2c2.5,2.2,4,5.2,4.2,8.6c0.2,3.4-0.8,6.5-3.2,9.1
		c-2.3,2.7-5.7,4.2-9.4,4.2c-3,0-6-1.2-8.2-3.2c-2.5-2.2-4-5.2-4.2-8.6c-0.2-3.4,0.8-6.5,3.2-9.1C72.5,80.5,75.9,78.8,79.4,78.8
		 M79.4,77.2c-3.9,0-7.7,1.7-10.6,4.7c-5.2,5.9-4.7,14.8,1.2,20c2.7,2.3,6,3.5,9.4,3.5c3.9,0,7.7-1.7,10.6-4.7
		c5.2-5.7,4.7-14.8-1.2-19.8C86.1,78.3,82.8,77.2,79.4,77.2L79.4,77.2z"/>
</g>
<g>
	<path class="st0" d="M81.3,39.6c-3.2,0-6.4-1.2-8.7-3.4c-5.5-4.9-6-13.2-1.2-18.8c2.5-2.9,6.2-4.5,9.9-4.5c3.2,0,6.4,1.2,8.7,3.4
		c5.5,4.9,6,13.2,1.2,18.8C88.6,37.9,85,39.6,81.3,39.6z"/>
	<path class="st1" d="M81.3,13.8L81.3,13.8c3,0,6,1.2,8.2,3.2c5.2,4.5,5.7,12.4,1,17.6c-2.3,2.7-5.7,4.2-9.4,4.2c-3,0-6-1.2-8.2-3.2
		c-2.5-2.2-4-5.2-4.2-8.6s0.8-6.5,3.2-9.1C74.2,15.3,77.6,13.8,81.3,13.8 M81.3,12.1c-3.9,0-7.7,1.7-10.6,4.7
		c-5.2,5.9-4.7,14.8,1.2,20c2.7,2.3,6,3.5,9.4,3.5c3.9,0,7.7-1.7,10.6-4.7c5.2-5.9,4.7-14.8-1.2-20C87.8,13.3,84.5,12.1,81.3,12.1
		L81.3,12.1z"/>
</g>
<g>
	<line class="st2" x1="70.5" y1="17" x2="53.1" y2="1.4"/>
</g>
<path class="st2" d="M53.3,2.7"/>
<line class="st2" x1="53.1" y1="1.4" x2="20.1" y2="38.8"/>
<line class="st2" x1="68.9" y1="82" x2="20.1" y2="38.8"/>
<g>
	<path class="st0" d="M50.6,52.2c-3.2,0-6.4-1.2-8.7-3.4c-5.5-4.9-6-13.2-1.2-18.8c2.5-2.9,6.2-4.5,9.9-4.5c3.2,0,6.4,1.2,8.7,3.4
		c2.7,2.3,4.2,5.5,4.5,9.2c0.2,3.5-1,6.9-3.4,9.6C58,50.7,54.3,52.2,50.6,52.2z"/>
	<path class="st1" d="M50.6,26.5L50.6,26.5c3,0,6,1.2,8.2,3.2c2.5,2.2,4,5.2,4.2,8.6c0.2,3.4-0.8,6.5-3.2,9.1
		c-2.3,2.7-5.7,4.2-9.4,4.2c-3,0-6-1.2-8.2-3.2c-5.2-4.5-5.7-12.4-1-17.6C43.5,28,47.1,26.5,50.6,26.5 M50.6,24.8
		c-3.9,0-7.7,1.7-10.6,4.7c-5.2,5.9-4.7,14.8,1.2,20c2.7,2.3,6,3.5,9.4,3.5c3.9,0,7.7-1.7,10.6-4.7c5.2-5.9,4.7-14.8-1.2-20
		C57.3,26,53.9,24.8,50.6,24.8L50.6,24.8z"/>
</g>
<g>
	<path class="st0" d="M48.7,117.4c-3.2,0-6.4-1.2-8.7-3.4c-2.7-2.3-4.2-5.5-4.5-9.2c-0.3-3.7,1-6.9,3.4-9.6c2.5-2.9,6.2-4.5,9.9-4.5
		c3.2,0,6.4,1.2,8.7,3.4c5.5,4.9,6,13.2,1.2,18.8C56.3,115.7,52.6,117.4,48.7,117.4z"/>
	<path class="st1" d="M48.7,91.6L48.7,91.6c3,0,6,1.2,8.2,3.2c5.2,4.5,5.7,12.4,1,17.6c-2.3,2.7-5.7,4.2-9.4,4.2c-3,0-6-1.2-8.2-3.2
		c-5.2-4.5-5.7-12.4-1-17.6C41.9,93.1,45.2,91.6,48.7,91.6 M48.7,89.9c-3.9,0-7.7,1.7-10.6,4.7c-5.2,5.9-4.7,14.8,1.2,20
		c2.7,2.3,6,3.5,9.4,3.5c3.9,0,7.7-1.7,10.6-4.7c5.2-5.9,4.7-14.8-1.2-20C55.4,91.1,52.1,89.9,48.7,89.9L48.7,89.9z"/>
</g>
<g>
	<line class="st2" x1="59.5" y1="113.4" x2="76.9" y2="128.8"/>
</g>
<path class="st2" d="M76.7,127.6"/>
<line class="st2" x1="76.9" y1="128.8" x2="109.9" y2="91.6"/>
<line class="st2" x1="61.1" y1="48.3" x2="109.9" y2="91.6"/>
</svg>
